<?xml version="1.0" encoding="UTF-8"?>
<svg xmlns="http://www.w3.org/2000/svg" xmlns:xlink="http://www.w3.org/1999/xlink" width="1000px" height="123px" viewBox="0 0 48 6" version="1.1">
<defs>
<clipPath id="clip1">
  <path d="M 7 0.0507812 L 8 0.0507812 L 8 6 L 7 6 Z M 7 0.0507812 "/>
</clipPath>
<clipPath id="clip2">
  <path d="M 8.542969 0.859375 L 47.820312 0.859375 L 47.820312 5.238281 L 8.542969 5.238281 Z M 8.542969 0.859375 "/>
</clipPath>
<clipPath id="clip3">
  <path d="M 0.164062 0.0507812 L 6.121094 0.0507812 L 6.121094 6 L 0.164062 6 Z M 0.164062 0.0507812 "/>
</clipPath>
</defs>
<g id="surface1">
<g clip-path="url(#clip1)" clip-rule="nonzero">
<path style=" stroke:none;fill-rule:nonzero;fill:rgb(49.803922%,76.470588%,49.411765%);fill-opacity:1;" d="M 7.332031 0.847656 C 7.441406 0.847656 7.527344 1.066406 7.527344 1.332031 L 7.527344 4.765625 C 7.527344 5.03125 7.441406 5.25 7.332031 5.25 C 7.226562 5.25 7.136719 5.03125 7.136719 4.765625 L 7.136719 1.332031 C 7.136719 1.066406 7.226562 0.847656 7.332031 0.847656 Z M 7.332031 0.847656 "/>
</g>
<g clip-path="url(#clip2)" clip-rule="nonzero">
<path style=" stroke:none;fill-rule:nonzero;fill:rgb(49.803922%,76.470588%,49.411765%);fill-opacity:1;" d="M 9.949219 5.234375 C 9.832031 5.234375 9.714844 5.230469 9.59375 5.222656 C 9.472656 5.214844 9.355469 5.203125 9.242188 5.1875 C 9.125 5.175781 9.011719 5.160156 8.90625 5.140625 C 8.796875 5.121094 8.699219 5.101562 8.605469 5.078125 L 8.605469 4.285156 C 8.726562 4.296875 8.863281 4.304688 9.011719 4.3125 C 9.160156 4.320312 9.308594 4.328125 9.464844 4.332031 C 9.617188 4.335938 9.761719 4.335938 9.898438 4.335938 C 10.03125 4.335938 10.144531 4.324219 10.238281 4.304688 C 10.328125 4.28125 10.402344 4.246094 10.449219 4.195312 C 10.5 4.140625 10.523438 4.070312 10.523438 3.976562 L 10.523438 3.867188 C 10.523438 3.765625 10.492188 3.683594 10.425781 3.628906 C 10.359375 3.578125 10.273438 3.550781 10.171875 3.550781 L 9.839844 3.550781 C 9.417969 3.550781 9.09375 3.457031 8.875 3.265625 C 8.652344 3.078125 8.542969 2.757812 8.542969 2.3125 L 8.542969 2.109375 C 8.542969 1.6875 8.664062 1.378906 8.90625 1.175781 C 9.152344 0.972656 9.5 0.871094 9.957031 0.871094 C 10.121094 0.871094 10.285156 0.878906 10.4375 0.898438 C 10.59375 0.914062 10.742188 0.933594 10.882812 0.957031 C 11.023438 0.980469 11.148438 1.007812 11.253906 1.035156 L 11.253906 1.820312 C 11.078125 1.808594 10.882812 1.796875 10.667969 1.785156 C 10.449219 1.773438 10.253906 1.769531 10.074219 1.769531 C 9.957031 1.769531 9.851562 1.777344 9.761719 1.800781 C 9.671875 1.820312 9.601562 1.859375 9.550781 1.914062 C 9.5 1.972656 9.476562 2.054688 9.476562 2.160156 L 9.476562 2.242188 C 9.476562 2.367188 9.511719 2.457031 9.582031 2.515625 C 9.652344 2.570312 9.761719 2.601562 9.902344 2.601562 L 10.296875 2.601562 C 10.558594 2.601562 10.773438 2.648438 10.945312 2.75 C 11.117188 2.847656 11.246094 2.980469 11.332031 3.152344 C 11.414062 3.324219 11.457031 3.519531 11.457031 3.734375 L 11.457031 3.949219 C 11.457031 4.304688 11.394531 4.574219 11.273438 4.757812 C 11.148438 4.945312 10.976562 5.070312 10.75 5.132812 C 10.523438 5.199219 10.257812 5.234375 9.949219 5.234375 Z M 13.871094 5.199219 L 12.890625 5.199219 L 12.890625 1.804688 L 11.78125 1.804688 L 11.78125 0.90625 L 14.980469 0.90625 L 14.980469 1.804688 L 13.871094 1.804688 Z M 17.074219 5.234375 C 16.78125 5.234375 16.527344 5.203125 16.304688 5.144531 C 16.082031 5.089844 15.894531 4.980469 15.746094 4.828125 C 15.597656 4.671875 15.484375 4.453125 15.410156 4.167969 C 15.335938 3.882812 15.300781 3.511719 15.300781 3.050781 C 15.300781 2.597656 15.335938 2.226562 15.414062 1.9375 C 15.488281 1.652344 15.601562 1.429688 15.75 1.277344 C 15.898438 1.121094 16.082031 1.015625 16.304688 0.957031 C 16.527344 0.894531 16.78125 0.867188 17.074219 0.867188 C 17.371094 0.867188 17.628906 0.894531 17.851562 0.957031 C 18.074219 1.015625 18.257812 1.121094 18.40625 1.277344 C 18.554688 1.429688 18.664062 1.652344 18.738281 1.9375 C 18.8125 2.226562 18.851562 2.597656 18.851562 3.050781 C 18.851562 3.511719 18.8125 3.882812 18.738281 4.167969 C 18.664062 4.453125 18.554688 4.671875 18.402344 4.828125 C 18.253906 4.980469 18.070312 5.089844 17.847656 5.144531 C 17.628906 5.203125 17.371094 5.234375 17.074219 5.234375 Z M 17.074219 4.335938 C 17.230469 4.335938 17.359375 4.316406 17.460938 4.28125 C 17.5625 4.246094 17.644531 4.179688 17.703125 4.089844 C 17.761719 4 17.804688 3.871094 17.828125 3.703125 C 17.851562 3.535156 17.867188 3.316406 17.867188 3.050781 C 17.867188 2.777344 17.851562 2.558594 17.828125 2.386719 C 17.804688 2.21875 17.761719 2.085938 17.703125 1.996094 C 17.644531 1.90625 17.5625 1.84375 17.460938 1.8125 C 17.359375 1.777344 17.230469 1.761719 17.074219 1.761719 C 16.921875 1.761719 16.796875 1.777344 16.695312 1.8125 C 16.589844 1.84375 16.511719 1.90625 16.449219 1.996094 C 16.394531 2.085938 16.351562 2.21875 16.324219 2.386719 C 16.296875 2.558594 16.285156 2.777344 16.285156 3.050781 C 16.285156 3.316406 16.296875 3.535156 16.320312 3.703125 C 16.34375 3.871094 16.386719 4 16.445312 4.089844 C 16.503906 4.179688 16.585938 4.246094 16.6875 4.28125 C 16.789062 4.316406 16.917969 4.335938 17.074219 4.335938 Z M 20.847656 5.234375 C 20.605469 5.234375 20.390625 5.203125 20.203125 5.144531 C 20.011719 5.089844 19.851562 4.980469 19.71875 4.828125 C 19.582031 4.671875 19.480469 4.453125 19.410156 4.164062 C 19.339844 3.875 19.304688 3.5 19.304688 3.039062 C 19.304688 2.59375 19.339844 2.226562 19.417969 1.945312 C 19.488281 1.660156 19.59375 1.441406 19.730469 1.285156 C 19.863281 1.128906 20.027344 1.019531 20.214844 0.957031 C 20.40625 0.898438 20.617188 0.867188 20.851562 0.867188 C 21.066406 0.867188 21.257812 0.878906 21.433594 0.902344 C 21.609375 0.925781 21.757812 0.953125 21.886719 0.984375 C 22.015625 1.015625 22.125 1.050781 22.207031 1.085938 L 22.207031 1.859375 C 22.136719 1.84375 22.042969 1.828125 21.929688 1.816406 C 21.8125 1.800781 21.683594 1.785156 21.535156 1.777344 C 21.386719 1.765625 21.230469 1.761719 21.0625 1.761719 C 20.921875 1.761719 20.800781 1.777344 20.703125 1.808594 C 20.601562 1.839844 20.523438 1.898438 20.464844 1.992188 C 20.402344 2.082031 20.359375 2.210938 20.332031 2.382812 C 20.304688 2.550781 20.289062 2.773438 20.289062 3.046875 C 20.289062 3.304688 20.300781 3.519531 20.324219 3.6875 C 20.347656 3.859375 20.386719 3.988281 20.441406 4.082031 C 20.5 4.175781 20.578125 4.238281 20.679688 4.277344 C 20.78125 4.316406 20.910156 4.335938 21.070312 4.335938 C 21.355469 4.335938 21.589844 4.332031 21.773438 4.320312 C 21.953125 4.308594 22.097656 4.292969 22.207031 4.277344 L 22.207031 5.054688 C 22.109375 5.09375 21.996094 5.125 21.867188 5.148438 C 21.738281 5.171875 21.589844 5.195312 21.421875 5.210938 C 21.253906 5.226562 21.0625 5.234375 20.847656 5.234375 Z M 23.742188 5.199219 L 22.757812 5.199219 L 22.757812 0.90625 L 23.742188 0.90625 L 23.742188 2.625 L 24.234375 2.625 L 25 0.90625 L 26.042969 0.90625 L 25.019531 3.0625 L 26.089844 5.199219 L 25.046875 5.199219 L 24.238281 3.519531 L 23.742188 3.519531 Z M 27.820312 5.234375 C 27.699219 5.234375 27.582031 5.230469 27.460938 5.222656 C 27.34375 5.214844 27.226562 5.203125 27.109375 5.1875 C 26.992188 5.175781 26.882812 5.160156 26.773438 5.140625 C 26.664062 5.121094 26.566406 5.101562 26.476562 5.078125 L 26.476562 4.285156 C 26.597656 4.296875 26.730469 4.304688 26.878906 4.3125 C 27.027344 4.320312 27.179688 4.328125 27.332031 4.332031 C 27.484375 4.335938 27.628906 4.335938 27.765625 4.335938 C 27.898438 4.335938 28.011719 4.324219 28.105469 4.304688 C 28.199219 4.28125 28.269531 4.246094 28.320312 4.195312 C 28.367188 4.140625 28.394531 4.070312 28.394531 3.976562 L 28.394531 3.867188 C 28.394531 3.765625 28.359375 3.683594 28.292969 3.628906 C 28.226562 3.578125 28.144531 3.550781 28.039062 3.550781 L 27.710938 3.550781 C 27.285156 3.550781 26.964844 3.457031 26.742188 3.265625 C 26.523438 3.078125 26.414062 2.757812 26.414062 2.3125 L 26.414062 2.109375 C 26.414062 1.6875 26.535156 1.378906 26.777344 1.175781 C 27.019531 0.972656 27.367188 0.871094 27.824219 0.871094 C 27.992188 0.871094 28.152344 0.878906 28.308594 0.898438 C 28.464844 0.914062 28.613281 0.933594 28.75 0.957031 C 28.890625 0.980469 29.015625 1.007812 29.121094 1.035156 L 29.121094 1.820312 C 28.949219 1.808594 28.75 1.796875 28.535156 1.785156 C 28.320312 1.773438 28.121094 1.769531 27.945312 1.769531 C 27.824219 1.769531 27.722656 1.777344 27.628906 1.800781 C 27.539062 1.820312 27.46875 1.859375 27.421875 1.914062 C 27.371094 1.972656 27.347656 2.054688 27.347656 2.160156 L 27.347656 2.242188 C 27.347656 2.367188 27.382812 2.457031 27.449219 2.515625 C 27.519531 2.570312 27.628906 2.601562 27.773438 2.601562 L 28.164062 2.601562 C 28.425781 2.601562 28.644531 2.648438 28.816406 2.75 C 28.984375 2.847656 29.113281 2.980469 29.199219 3.152344 C 29.285156 3.324219 29.328125 3.519531 29.328125 3.734375 L 29.328125 3.949219 C 29.328125 4.304688 29.265625 4.574219 29.140625 4.757812 C 29.019531 4.945312 28.84375 5.070312 28.617188 5.132812 C 28.390625 5.199219 28.125 5.234375 27.820312 5.234375 Z M 30.878906 5.199219 L 29.894531 5.199219 L 29.894531 0.90625 L 31.714844 0.90625 C 31.855469 0.90625 32 0.921875 32.148438 0.957031 C 32.296875 0.988281 32.433594 1.054688 32.554688 1.15625 C 32.679688 1.253906 32.777344 1.40625 32.855469 1.609375 C 32.929688 1.8125 32.96875 2.082031 32.96875 2.417969 C 32.96875 2.75 32.929688 3.023438 32.855469 3.226562 C 32.777344 3.433594 32.679688 3.589844 32.5625 3.695312 C 32.441406 3.796875 32.3125 3.867188 32.171875 3.90625 C 32.03125 3.941406 31.894531 3.960938 31.761719 3.960938 C 31.691406 3.960938 31.617188 3.957031 31.535156 3.949219 C 31.449219 3.941406 31.367188 3.929688 31.285156 3.917969 C 31.199219 3.910156 31.125 3.894531 31.054688 3.882812 C 30.984375 3.867188 30.925781 3.859375 30.878906 3.855469 Z M 30.878906 1.804688 L 30.878906 3.0625 L 31.609375 3.0625 C 31.695312 3.0625 31.765625 3.039062 31.820312 2.996094 C 31.875 2.949219 31.917969 2.878906 31.945312 2.785156 C 31.972656 2.695312 31.984375 2.570312 31.984375 2.421875 C 31.984375 2.277344 31.96875 2.164062 31.941406 2.070312 C 31.914062 1.980469 31.871094 1.914062 31.816406 1.867188 C 31.765625 1.824219 31.699219 1.804688 31.613281 1.804688 Z M 36.0625 5.199219 L 34.523438 5.199219 C 34.28125 5.199219 34.085938 5.160156 33.929688 5.089844 C 33.773438 5.015625 33.660156 4.898438 33.582031 4.742188 C 33.507812 4.582031 33.46875 4.378906 33.46875 4.128906 L 33.46875 0.90625 L 34.453125 0.90625 L 34.453125 3.960938 C 34.453125 4.042969 34.464844 4.105469 34.492188 4.15625 C 34.515625 4.207031 34.554688 4.242188 34.605469 4.265625 C 34.65625 4.289062 34.714844 4.300781 34.785156 4.300781 L 36.0625 4.300781 Z M 38.148438 5.226562 C 37.910156 5.226562 37.691406 5.207031 37.488281 5.167969 C 37.285156 5.128906 37.105469 5.058594 36.953125 4.957031 C 36.796875 4.851562 36.675781 4.707031 36.589844 4.519531 C 36.503906 4.332031 36.460938 4.089844 36.460938 3.796875 L 36.460938 0.90625 L 37.445312 0.90625 L 37.445312 3.792969 C 37.445312 3.917969 37.472656 4.023438 37.53125 4.101562 C 37.585938 4.179688 37.664062 4.238281 37.769531 4.273438 C 37.871094 4.3125 38 4.332031 38.148438 4.332031 C 38.289062 4.332031 38.414062 4.3125 38.519531 4.273438 C 38.625 4.238281 38.703125 4.179688 38.757812 4.101562 C 38.8125 4.023438 38.839844 3.917969 38.839844 3.792969 L 38.839844 0.90625 L 39.824219 0.90625 L 39.824219 3.796875 C 39.824219 4.089844 39.78125 4.332031 39.695312 4.519531 C 39.613281 4.707031 39.492188 4.851562 39.335938 4.957031 C 39.179688 5.058594 39.003906 5.128906 38.800781 5.167969 C 38.601562 5.207031 38.382812 5.226562 38.148438 5.226562 Z M 41.4375 5.199219 L 40.457031 5.199219 L 40.457031 0.90625 L 41.238281 0.90625 L 42.851562 3.503906 L 42.851562 0.90625 L 43.839844 0.90625 L 43.839844 5.199219 L 43.050781 5.199219 L 41.4375 2.605469 Z M 45.476562 5.199219 L 44.492188 5.199219 L 44.492188 0.90625 L 45.476562 0.90625 L 45.476562 2.625 L 45.964844 2.625 L 46.734375 0.90625 L 47.777344 0.90625 L 46.75 3.0625 L 47.820312 5.199219 L 46.78125 5.199219 L 45.972656 3.519531 L 45.476562 3.519531 Z M 45.476562 5.199219 "/>
</g>
<g clip-path="url(#clip3)" clip-rule="nonzero">
<path style=" stroke:none;fill-rule:nonzero;fill:rgb(99.607843%,99.607843%,88.627451%);fill-opacity:1;" d="M 6.011719 0.0234375 L 0.277344 0.0234375 C 0.214844 0.0234375 0.164062 0.0742188 0.164062 0.136719 L 0.164062 4.558594 L 0.667969 4.292969 C 0.699219 4.277344 0.734375 4.277344 0.765625 4.292969 L 1.121094 4.472656 L 1.507812 3.882812 C 1.53125 3.851562 1.566406 3.832031 1.605469 3.835938 C 1.644531 3.835938 1.679688 3.859375 1.699219 3.894531 L 2.039062 4.59375 L 2.382812 3.894531 C 2.398438 3.863281 2.429688 3.839844 2.464844 3.835938 C 2.5 3.828125 2.535156 3.839844 2.558594 3.867188 L 2.882812 4.195312 L 3.261719 3.230469 C 3.273438 3.195312 3.304688 3.171875 3.339844 3.164062 C 3.378906 3.15625 3.414062 3.167969 3.441406 3.195312 L 3.765625 3.523438 L 4.144531 2.558594 C 4.144531 2.550781 4.148438 2.546875 4.152344 2.539062 L 4.59375 1.867188 C 4.597656 1.859375 4.605469 1.855469 4.609375 1.847656 L 4.863281 1.59375 L 4.6875 1.59375 C 4.625 1.59375 4.578125 1.542969 4.578125 1.480469 C 4.578125 1.417969 4.625 1.367188 4.6875 1.367188 L 5.128906 1.367188 C 5.1875 1.367188 5.238281 1.417969 5.238281 1.480469 L 5.238281 1.929688 C 5.238281 1.992188 5.1875 2.039062 5.128906 2.039062 C 5.066406 2.039062 5.019531 1.992188 5.019531 1.929688 L 5.019531 1.75 L 4.773438 2 L 4.34375 2.652344 L 3.90625 3.761719 C 3.894531 3.796875 3.863281 3.824219 3.828125 3.832031 C 3.789062 3.839844 3.753906 3.828125 3.726562 3.800781 L 3.402344 3.472656 L 3.023438 4.4375 C 3.011719 4.472656 2.980469 4.496094 2.945312 4.503906 C 2.910156 4.511719 2.871094 4.5 2.84375 4.472656 C 2.734375 4.359375 2.621094 4.246094 2.511719 4.132812 L 2.140625 4.894531 C 2.121094 4.929688 2.082031 4.953125 2.039062 4.953125 C 2 4.953125 1.960938 4.929688 1.941406 4.894531 L 1.585938 4.167969 L 1.25 4.679688 C 1.21875 4.726562 1.160156 4.742188 1.109375 4.71875 L 0.71875 4.519531 L 0.164062 4.789062 L 0.164062 5.964844 C 0.164062 6.023438 0.214844 6.074219 0.277344 6.074219 L 6.011719 6.074219 C 6.070312 6.074219 6.121094 6.023438 6.121094 5.964844 L 6.121094 0.136719 C 6.121094 0.0742188 6.070312 0.0234375 6.011719 0.0234375 Z M 6.011719 0.0234375 "/>
</g>
</g>
</svg>
